<svg width="29" height="28" viewBox="0 0 29 28" fill="none" xmlns="http://www.w3.org/2000/svg">
<path d="M14.5029 27.3971C11.7936 27.3971 9.14511 26.5936 6.89243 25.0883C4.63976 23.583 2.88404 21.4436 1.8473 18.9405C0.810552 16.4374 0.539347 13.683 1.06798 11.0258C1.59661 8.36855 2.90133 5.92773 4.81715 4.01201C7.38619 1.44308 10.8705 -8.02771e-05 14.5036 3.34921e-09C16.3025 3.97542e-05 18.0838 0.354403 19.7458 1.04286C21.4078 1.73131 22.9179 2.74038 24.1899 4.01244C25.4619 5.2845 26.4709 6.79464 27.1593 8.45664C27.8476 10.1186 28.2019 11.9 28.2019 13.6989C28.2018 15.4978 27.8475 17.2791 27.159 18.9411C26.4706 20.6031 25.4615 22.1132 24.1894 23.3852C22.9202 24.661 21.4106 25.6725 19.7479 26.3611C18.0852 27.0498 16.3025 27.4019 14.5029 27.3971ZM10.9464 11.8638V14.2979H13.0474V20.5479H15.5619V14.2979H17.6604L17.9737 11.8621H15.5637V10.3091C15.5637 9.59759 15.7691 9.12413 16.7708 9.12413H18.0602V6.94521C17.436 6.87876 16.8086 6.84675 16.1809 6.84932C15.7545 6.82033 15.3269 6.88443 14.9278 7.03719C14.5286 7.18994 14.1675 7.42768 13.8694 7.73393C13.5713 8.04018 13.3434 8.4076 13.2014 8.81072C13.0595 9.21384 13.0069 9.64301 13.0474 10.0685V11.8664L10.9464 11.8638Z" fill="#3B5998"/>
</svg>
