<svg width="108" height="90" viewBox="0 0 108 90" fill="none" xmlns="http://www.w3.org/2000/svg">
<path d="M91.5644 5.64067C90.0083 5.64067 88.744 4.37638 88.744 2.82033C88.744 1.26429 90.0083 0 91.5644 0C93.1204 0 94.3847 1.26429 94.3847 2.82033C94.3847 4.37395 93.1204 5.64067 91.5644 5.64067ZM91.5644 0.486264C90.2782 0.486264 89.2303 1.53416 89.2303 2.82033C89.2303 4.1065 90.2782 5.1544 91.5644 5.1544C92.8505 5.1544 93.8984 4.1065 93.8984 2.82033C93.8984 1.53416 92.8505 0.486264 91.5644 0.486264Z" fill="#3399FF"/>
<path d="M9.30004 13.0151C9.46537 13.7226 9.0253 14.4277 8.31778 14.593C7.61027 14.7583 6.90518 14.3183 6.73985 13.6108C6.57452 12.9032 7.01459 12.1982 7.72211 12.0328C8.42962 11.8675 9.13714 12.3076 9.30004 13.0151Z" fill="#FFD166"/>
<path d="M2.86731 25.3386C2.32269 25.3775 1.78051 25.2437 1.30883 24.9495C0.71559 24.58 0.302266 24.0013 0.14423 23.3206C-0.181568 21.9153 0.693709 20.5075 2.09901 20.1793C3.50432 19.8535 4.91205 20.7288 5.24028 22.1341C5.56608 23.5394 4.6908 24.9471 3.2855 25.2753C3.14448 25.3094 3.0059 25.3288 2.86731 25.3386ZM2.54151 20.6048C2.42967 20.6121 2.31783 20.6291 2.20599 20.6558C1.06327 20.9208 0.348461 22.0684 0.613475 23.2136C0.742335 23.7679 1.08029 24.2396 1.56169 24.5387C2.04552 24.8401 2.61688 24.935 3.1688 24.8061C4.31152 24.5411 5.02633 23.3935 4.76131 22.2483C4.52304 21.215 3.56753 20.5318 2.54151 20.6048Z" fill="#3399FF"/>
<path d="M14.6062 88.7987C13.7868 88.7987 13.123 88.1325 13.123 87.3132C13.123 86.4938 13.7892 85.8301 14.6062 85.8301C15.4255 85.8301 16.0893 86.4963 16.0893 87.3132C16.0917 88.1325 15.4255 88.7987 14.6062 88.7987ZM14.6062 86.2191C14.0032 86.2191 13.5121 86.7102 13.5121 87.3132C13.5121 87.9162 14.0032 88.4097 14.6062 88.4097C15.2091 88.4097 15.7002 87.9186 15.7002 87.3132C15.7027 86.7102 15.2091 86.2191 14.6062 86.2191Z" fill="#FFD166"/>
<path d="M19.0594 19.9643C11.9429 25.3254 5.98129 31.8219 3.78095 39.7018C1.00681 49.6338 4.27207 60.424 10.6956 68.479C22.5653 83.3635 45.4246 89.0236 63.696 81.6057C82.1376 74.1172 92.7528 54.1341 95.1452 35.909C96.1323 28.3937 95.0576 20.4482 90.7834 14.1778C85.6095 6.58963 76.1833 2.28133 66.6841 1.68323C57.1874 1.08269 47.6566 3.85197 39.1275 8.09219C32.7623 11.2578 25.4465 15.1552 19.0594 19.9643Z" fill="#ECF3FE"/>
<path d="M65.8456 89.7972C65.7583 89.8027 65.6819 89.7399 65.671 89.6527C65.6601 89.5627 65.7228 89.4808 65.8128 89.4699C66.0801 89.4372 66.331 89.3636 66.5655 89.249C66.6474 89.2081 66.7455 89.2436 66.7837 89.3227C66.8246 89.4045 66.7892 89.5027 66.7101 89.5408C66.4428 89.6717 66.1537 89.7563 65.851 89.7945C65.851 89.7972 65.8483 89.7972 65.8456 89.7972ZM67.3264 89.0609C67.2828 89.0636 67.2364 89.0499 67.201 89.0172C67.1355 88.9545 67.1328 88.8509 67.1955 88.7854C67.2583 88.72 67.3155 88.6518 67.3701 88.5781C67.3701 88.5781 67.3701 88.5754 67.3728 88.5754C67.4928 88.42 67.6182 88.2754 67.7491 88.1445C67.8119 88.0791 67.9155 88.0791 67.981 88.1418C68.0464 88.2045 68.0464 88.3082 67.9837 88.3736C67.8637 88.4963 67.7464 88.63 67.6346 88.7745C67.5746 88.8563 67.5064 88.9354 67.4355 89.009C67.4028 89.0418 67.3646 89.0581 67.3264 89.0609ZM68.5264 87.8882C68.4691 87.8936 68.4119 87.8664 68.3764 87.8145C68.3273 87.7382 68.3491 87.6373 68.4255 87.5882C68.6355 87.4518 68.8564 87.34 69.0855 87.25C69.1291 87.2336 69.1755 87.2173 69.2218 87.2009C69.3064 87.1736 69.3991 87.2173 69.4291 87.3045C69.4591 87.3891 69.4127 87.4818 69.3255 87.5118C69.2846 87.5255 69.2436 87.5391 69.2027 87.5555C68.9955 87.6345 68.7964 87.7382 68.6055 87.8609C68.5782 87.8773 68.5509 87.8854 68.5264 87.8882ZM70.9509 87.3973C70.9454 87.3973 70.9372 87.3973 70.9318 87.3973C70.8663 87.3945 70.7981 87.3891 70.7272 87.3864C70.5418 87.3755 70.3291 87.3591 70.1054 87.37C70.0154 87.3755 69.9391 87.3046 69.9336 87.2146C69.9282 87.1246 69.9991 87.0482 70.0891 87.0427C70.3318 87.0318 70.5527 87.0455 70.7491 87.0591C70.82 87.0646 70.8854 87.0673 70.9481 87.07C71.0381 87.0755 71.109 87.1518 71.1036 87.2418C71.0981 87.3236 71.0327 87.3891 70.9509 87.3973ZM71.7854 87.3182C71.7063 87.3236 71.6327 87.2718 71.6136 87.1927C71.5917 87.1055 71.6463 87.0155 71.7336 86.9937C71.9872 86.9309 72.2272 86.8327 72.4672 86.6937C72.5463 86.6473 72.6444 86.6746 72.6908 86.7537C72.7372 86.8327 72.7099 86.9309 72.6308 86.9773C72.3635 87.1327 72.0963 87.2418 71.8099 87.3127C71.8045 87.3155 71.7963 87.3155 71.7854 87.3182ZM73.239 86.4973C73.1899 86.5 73.1408 86.4837 73.1053 86.4428C73.0453 86.3746 73.0508 86.2709 73.1162 86.2109C73.2962 86.0473 73.4844 85.8537 73.689 85.6192C73.749 85.551 73.8526 85.5455 73.9208 85.6028C73.9889 85.6628 73.9944 85.7664 73.9371 85.8346C73.7217 86.08 73.5253 86.2819 73.3371 86.4537C73.3071 86.4809 73.2744 86.4946 73.239 86.4973ZM74.3653 85.2455C74.3244 85.2482 74.2835 85.2373 74.2508 85.2101C74.1798 85.1528 74.1689 85.0492 74.2262 84.981L74.2671 84.9319C74.428 84.7328 74.5971 84.5255 74.7662 84.3292C74.8262 84.261 74.9271 84.2528 74.998 84.3128C75.0689 84.3728 75.0744 84.4737 75.0144 84.5446C74.848 84.741 74.6817 84.9455 74.5207 85.1419L74.4798 85.191C74.4498 85.221 74.4089 85.2428 74.3653 85.2455ZM85.424 83.6774C85.184 83.6938 84.9359 83.6938 84.685 83.6774C84.595 83.6719 84.5268 83.5928 84.535 83.5029C84.5432 83.4129 84.6195 83.3447 84.7095 83.3529C84.9877 83.3719 85.2604 83.3692 85.5222 83.3447C85.5249 83.3447 85.5249 83.3447 85.5277 83.3447C85.6149 83.3392 85.694 83.4019 85.7022 83.4919C85.7104 83.5819 85.6449 83.661 85.5549 83.6719C85.5113 83.6692 85.4677 83.6747 85.424 83.6774ZM82.326 83.8819C82.1078 83.8983 81.9005 83.8983 81.6878 83.8792C81.5978 83.871 81.5296 83.7919 81.5378 83.7019C81.546 83.6119 81.6251 83.5438 81.7151 83.5519C81.9087 83.5683 82.1023 83.5683 82.3014 83.5547C82.3723 83.5492 82.4459 83.541 82.5223 83.5329C82.525 83.5329 82.5278 83.5329 82.5305 83.5329C82.6178 83.5274 82.6941 83.5901 82.705 83.6774C82.7159 83.7674 82.6505 83.8492 82.5632 83.8601C82.4814 83.871 82.405 83.8765 82.326 83.8819ZM86.3731 83.4947C86.2995 83.5001 86.2286 83.4565 86.2067 83.3829C86.1795 83.2956 86.2258 83.2056 86.3104 83.1756C86.4822 83.121 86.6458 83.0501 86.7958 82.9711C86.8667 82.9329 86.9485 82.8865 87.0358 82.832C87.1122 82.7856 87.2131 82.8101 87.2594 82.8865C87.3058 82.9629 87.2812 83.0638 87.2049 83.1101C87.1122 83.1674 87.0222 83.2165 86.9458 83.2574C86.7767 83.3447 86.5967 83.421 86.4086 83.481C86.4004 83.4919 86.3867 83.4947 86.3731 83.4947ZM83.3841 83.7047C83.3077 83.7101 83.2341 83.661 83.215 83.5847C83.1959 83.511 83.2286 83.4374 83.2914 83.3992C83.1932 83.3665 83.095 83.331 82.9968 83.2956C82.9123 83.2629 82.8714 83.1674 82.9014 83.0829C82.9341 82.9983 83.0296 82.9574 83.1141 82.9874C83.3514 83.0774 83.5941 83.1538 83.8395 83.211C83.9268 83.1756 84.0114 83.1401 84.0959 83.102C84.1777 83.0638 84.2759 83.0992 84.3141 83.181C84.3522 83.2629 84.3168 83.361 84.235 83.3992C84.145 83.4401 84.055 83.481 83.9623 83.5165C83.9377 83.5356 83.9077 83.5465 83.8777 83.5492C83.7277 83.6065 83.575 83.6556 83.4168 83.6965C83.4059 83.7019 83.395 83.7019 83.3841 83.7047ZM80.8833 83.7401C80.8669 83.7401 80.8478 83.7401 80.8287 83.7347C80.5669 83.6665 80.316 83.5765 80.0106 83.4429C79.9288 83.4074 79.8906 83.3092 79.926 83.2274C79.9615 83.1456 80.0597 83.1074 80.1415 83.1429C80.4306 83.2683 80.6678 83.3529 80.9105 83.4156C80.9978 83.4374 81.0496 83.5274 81.0278 83.6147C81.0114 83.6883 80.9515 83.7347 80.8833 83.7401ZM75.478 83.9774C75.4316 83.9801 75.3825 83.9637 75.3471 83.9283C75.2844 83.8628 75.2871 83.7592 75.3498 83.6965C75.5762 83.4783 75.7943 83.2956 76.018 83.1429C76.0916 83.091 76.1952 83.1101 76.2443 83.1838C76.2961 83.2574 76.2771 83.361 76.2034 83.4101C75.9934 83.5547 75.7889 83.7238 75.5762 83.931C75.5516 83.9583 75.5134 83.9747 75.478 83.9774ZM84.9031 82.9874C84.8486 82.9901 84.7941 82.9683 84.7586 82.922C84.7041 82.8483 84.7204 82.7474 84.7941 82.6929C85.015 82.532 85.214 82.3493 85.3913 82.1502C85.4513 82.082 85.5549 82.0765 85.6231 82.1365C85.6913 82.1965 85.6968 82.3002 85.6368 82.3683C85.4431 82.5838 85.225 82.7829 84.9877 82.9574C84.9631 82.9765 84.9331 82.9847 84.9031 82.9874ZM87.8349 82.6656C87.7803 82.6683 87.7258 82.6465 87.6903 82.5974C87.6385 82.5238 87.6549 82.4229 87.7285 82.3683C87.9521 82.2074 88.173 82.0356 88.383 81.8584C88.4512 81.8011 88.5548 81.8093 88.6148 81.8774C88.6721 81.9456 88.6639 82.0493 88.5958 82.1093C88.3776 82.292 88.1512 82.4692 87.9221 82.6356C87.8949 82.6547 87.8649 82.6656 87.8349 82.6656ZM82.3041 82.9492C82.2741 82.952 82.2414 82.9438 82.2114 82.9301C82.0587 82.8456 81.9114 82.7529 81.7723 82.6574C81.6878 82.6002 81.5923 82.532 81.4887 82.4583C81.4151 82.4038 81.3987 82.3029 81.4533 82.2293C81.5078 82.1556 81.6087 82.1393 81.6823 82.1938C81.7805 82.2647 81.8732 82.3302 81.9578 82.3874C82.0887 82.4774 82.2278 82.5647 82.3723 82.6438C82.4514 82.6874 82.4787 82.7883 82.435 82.8674C82.4078 82.9138 82.356 82.9438 82.3041 82.9492ZM79.3233 83.1101C79.2988 83.1129 79.2715 83.1074 79.247 83.0965C78.9524 82.9711 78.7179 82.8974 78.4806 82.8538C78.3906 82.8374 78.3334 82.7529 78.347 82.6629C78.3634 82.5729 78.4479 82.5156 78.5379 82.5292C78.7997 82.5756 79.0588 82.6574 79.3751 82.7911C79.457 82.8265 79.4979 82.922 79.4624 83.0065C79.4351 83.0692 79.3806 83.1047 79.3233 83.1101ZM76.8661 83.042C76.7952 83.0474 76.7298 83.0065 76.7025 82.9383C76.6698 82.8538 76.7107 82.7583 76.7952 82.7256C77.0216 82.6383 77.2616 82.5729 77.5043 82.532C77.5534 82.5238 77.6025 82.5183 77.6488 82.5102C77.7388 82.4993 77.8206 82.562 77.8316 82.652C77.8425 82.742 77.7797 82.8238 77.6897 82.8347C77.6461 82.8401 77.6025 82.8456 77.5561 82.8538C77.3352 82.8892 77.1198 82.9492 76.9125 83.0283C76.8989 83.0365 76.8825 83.042 76.8661 83.042ZM89.1276 81.5829C89.0812 81.5856 89.0321 81.5693 88.9994 81.5338C88.9367 81.4684 88.9367 81.3647 89.0021 81.302C89.2012 81.1084 89.3894 80.912 89.5748 80.6993C89.6348 80.6311 89.7384 80.6257 89.8066 80.6857C89.8748 80.7457 89.8803 80.8493 89.8203 80.9175C89.6266 81.1357 89.4357 81.3375 89.2312 81.5365C89.1985 81.5638 89.163 81.5802 89.1276 81.5829ZM86.0213 81.7411C85.9886 81.7438 85.9558 81.7356 85.9258 81.7193C85.8495 81.6729 85.8222 81.572 85.8686 81.4956C86.0104 81.2556 86.1276 81.0102 86.2095 80.7648C86.2395 80.6802 86.3322 80.6339 86.4167 80.6611C86.5013 80.6911 86.5476 80.7838 86.5204 80.8684C86.4304 81.1384 86.3049 81.4056 86.1495 81.662C86.1222 81.7111 86.0731 81.7384 86.0213 81.7411ZM80.9651 81.932C80.916 81.9347 80.8669 81.9184 80.8342 81.8802C80.6296 81.6593 80.4578 81.4166 80.3215 81.1629C80.2778 81.0838 80.3078 80.9829 80.3897 80.942C80.4687 80.8984 80.5696 80.9284 80.6106 81.0102C80.7333 81.242 80.8915 81.4602 81.0769 81.6593C81.1396 81.7247 81.1342 81.8284 81.0687 81.8911C81.036 81.9156 81.0005 81.9293 80.9651 81.932ZM90.2812 80.353C90.2348 80.3557 90.1857 80.3393 90.1502 80.3011C90.0875 80.2357 90.0903 80.1321 90.1557 80.0693C90.3439 79.8921 90.5621 79.7039 90.8075 79.5103C90.8784 79.453 90.982 79.4666 91.0366 79.5375C91.0911 79.6084 91.0802 79.7121 91.0093 79.7666C90.772 79.9548 90.5593 80.1348 90.3793 80.3066C90.3521 80.3339 90.3166 80.3502 90.2812 80.353ZM86.5504 80.1539C86.5422 80.1539 86.534 80.1539 86.5258 80.1539C86.4358 80.1484 86.3676 80.0693 86.3758 79.9793C86.3867 79.8348 86.3867 79.6875 86.3758 79.543C86.3704 79.4503 86.3567 79.3575 86.3431 79.2675C86.3376 79.2403 86.3322 79.213 86.3267 79.183C86.3104 79.093 86.3676 79.0085 86.4549 78.9894C86.5449 78.973 86.6295 79.0303 86.6485 79.1175C86.654 79.1475 86.6595 79.1775 86.6649 79.2103C86.6813 79.3112 86.6949 79.4148 86.7031 79.5157C86.714 79.6766 86.714 79.8402 86.7031 80.0011C86.6949 80.0857 86.6294 80.1484 86.5504 80.1539ZM80.1742 80.462C80.0951 80.4675 80.0242 80.4157 80.0024 80.3393C79.9533 80.1402 79.9206 79.9412 79.9069 79.7421C79.8988 79.6466 79.896 79.5539 79.8988 79.4612C79.8988 79.3712 79.9751 79.2975 80.0651 79.3003C80.1551 79.3003 80.2287 79.3766 80.226 79.4666C80.226 79.5484 80.2287 79.6357 80.2342 79.7202C80.2478 79.8975 80.2778 80.0802 80.3215 80.2602C80.3433 80.3475 80.2915 80.4375 80.2015 80.4593C80.1933 80.4593 80.1851 80.462 80.1742 80.462ZM91.6011 79.3003C91.5466 79.303 91.4893 79.2812 91.4538 79.2321C91.402 79.1584 91.4211 79.0548 91.4948 79.003C91.7129 78.8503 91.9502 78.6921 92.2011 78.5285C92.2775 78.4794 92.3784 78.5012 92.4274 78.5776C92.4765 78.6539 92.4547 78.7548 92.3784 78.8039C92.1302 78.9648 91.8957 79.1203 91.6829 79.2703C91.6584 79.2894 91.6284 79.2975 91.6011 79.3003ZM93.0165 78.3812C92.9565 78.3867 92.8965 78.3567 92.8638 78.3021C92.8174 78.2257 92.842 78.1248 92.9183 78.0785C93.1856 77.9149 93.4365 77.7676 93.6465 77.6449C93.7256 77.5985 93.8238 77.6258 93.8701 77.7021C93.9165 77.7812 93.8892 77.8794 93.8129 77.9258C93.6056 78.0485 93.3547 78.1957 93.0902 78.3594C93.0683 78.373 93.0438 78.3812 93.0165 78.3812ZM86.2258 78.5203C86.1604 78.5257 86.0977 78.4903 86.0677 78.4303C85.9504 78.193 85.7949 77.9612 85.6231 77.7649C85.5631 77.6967 85.5713 77.593 85.6395 77.533C85.7077 77.473 85.8113 77.4812 85.8713 77.5494C86.0622 77.7676 86.2313 78.0212 86.3622 78.283C86.4031 78.3648 86.3704 78.463 86.2886 78.5012C86.2667 78.5121 86.2476 78.5176 86.2258 78.5203ZM80.2097 78.7985C80.1878 78.8012 80.1688 78.7985 80.1469 78.7903C80.0597 78.763 80.0133 78.6703 80.0433 78.583C80.0542 78.5503 80.0651 78.5176 80.076 78.4876C80.166 78.2394 80.2915 78.0048 80.4442 77.7894C80.496 77.7158 80.5996 77.6994 80.6733 77.7512C80.7469 77.803 80.7633 77.9067 80.7115 77.9803C80.5751 78.1712 80.4633 78.3785 80.3842 78.5994C80.3733 78.6294 80.3651 78.6566 80.3542 78.6839C80.3324 78.7494 80.2751 78.793 80.2097 78.7985ZM94.4674 77.514C94.4101 77.5194 94.3528 77.4921 94.3174 77.4403C94.2683 77.364 94.2901 77.263 94.3637 77.214C94.5874 77.0667 94.8001 76.8976 94.9965 76.7067C95.0619 76.644 95.1655 76.6467 95.2283 76.7094C95.291 76.7749 95.2883 76.8785 95.2255 76.9412C95.0128 77.1458 94.7837 77.3312 94.5437 77.4867C94.5192 77.503 94.4947 77.5112 94.4674 77.514ZM85.124 77.2685C85.0886 77.2712 85.0531 77.263 85.0231 77.2412C84.805 77.0967 84.5622 76.9822 84.3032 76.8949C84.2186 76.8649 84.1723 76.7749 84.1995 76.6876C84.2268 76.6031 84.3195 76.5567 84.4068 76.584C84.6932 76.6794 84.9604 76.8076 85.2031 76.9658C85.2795 77.0149 85.3013 77.1158 85.2495 77.1921C85.2195 77.2385 85.1731 77.263 85.124 77.2685ZM81.1751 77.443C81.1233 77.4458 81.0687 77.4267 81.0333 77.3803C80.9787 77.3094 80.9896 77.2058 81.0605 77.1512C81.2896 76.9712 81.5432 76.8212 81.8187 76.6985C81.9005 76.6631 81.9987 76.6985 82.0341 76.7831C82.0696 76.8649 82.0341 76.9631 81.9496 76.9985C81.7014 77.1076 81.4696 77.2467 81.2624 77.4103C81.2351 77.4294 81.2051 77.4403 81.1751 77.443ZM95.6783 76.3522C95.6401 76.3549 95.6019 76.344 95.5692 76.3194C95.4955 76.2649 95.4819 76.164 95.5364 76.0904C95.6919 75.8804 95.8419 75.6486 95.981 75.4004C96.0246 75.3213 96.1255 75.294 96.2046 75.3377C96.2837 75.3813 96.311 75.4822 96.2673 75.5613C96.1228 75.8204 95.9646 76.0658 95.801 76.2894C95.7683 76.3276 95.7246 76.3494 95.6783 76.3522ZM83.5423 76.7312C83.5341 76.7312 83.5232 76.7312 83.515 76.7312C83.2723 76.7094 83.1005 76.7176 83.0514 76.7203H83.0487C82.9396 76.7285 82.8278 76.7422 82.7187 76.7613C82.6314 76.7776 82.5441 76.7176 82.5278 76.6303C82.5114 76.5403 82.5714 76.4558 82.6587 76.4394C82.7814 76.4176 82.9014 76.4013 83.0241 76.3931H83.0268C83.095 76.3876 83.2832 76.3794 83.545 76.404C83.635 76.4122 83.7005 76.4913 83.6923 76.5813C83.6841 76.6631 83.6214 76.7258 83.5423 76.7312ZM96.5019 74.8849C96.4773 74.8877 96.45 74.8822 96.4255 74.8713C96.341 74.8359 96.3028 74.7404 96.3382 74.6559C96.4419 74.4131 96.54 74.1513 96.63 73.8786C96.6573 73.7941 96.75 73.745 96.8373 73.775C96.9219 73.8023 96.9709 73.895 96.9409 73.9822C96.8482 74.2631 96.7473 74.5331 96.6409 74.784C96.6164 74.844 96.5619 74.8822 96.5019 74.8849ZM97.0309 73.2868C97.0146 73.2868 96.9955 73.2868 96.9791 73.2814C96.8919 73.2595 96.8373 73.1695 96.8619 73.0823C96.9273 72.8232 96.99 72.5478 97.0446 72.2696C97.0609 72.1796 97.1482 72.1223 97.2355 72.1414C97.3255 72.1578 97.3827 72.245 97.3637 72.3323C97.3064 72.6187 97.2437 72.8996 97.1782 73.1641C97.1618 73.235 97.0991 73.2814 97.0309 73.2868ZM97.3582 71.6341C97.3473 71.6341 97.3337 71.6341 97.3227 71.6341C97.2327 71.6205 97.1728 71.5387 97.1837 71.4487C97.1946 71.3669 97.2082 71.2851 97.2191 71.2005C97.23 71.1105 97.3146 71.0478 97.4018 71.0614C97.4918 71.0723 97.5546 71.1569 97.5409 71.2442C97.53 71.3287 97.5164 71.4132 97.5055 71.4951C97.4973 71.5714 97.4346 71.6287 97.3582 71.6341Z" fill="#3399FF"/>
<path opacity="0.946" fill-rule="evenodd" clip-rule="evenodd" d="M103.421 56.7011C103.803 56.6891 103.954 56.8708 103.875 57.2463C103.738 57.4603 103.55 57.5148 103.312 57.4098C103.061 57.1276 103.097 56.8913 103.421 56.7011Z" fill="#94D4FF"/>
<path opacity="0.986" fill-rule="evenodd" clip-rule="evenodd" d="M91.9104 57.4277C92.7101 57.4339 93.0675 57.8336 92.9825 58.627C92.6729 59.2725 92.1944 59.436 91.547 59.1176C91.014 58.6088 91.014 58.1 91.547 57.5912C91.6675 57.5247 91.7886 57.4702 91.9104 57.4277Z" fill="#2E3369"/>
<path opacity="0.994" fill-rule="evenodd" clip-rule="evenodd" d="M97.9513 57.7907C100.398 57.6914 102.427 58.5515 104.039 60.3711C105.631 62.382 106.103 64.6353 105.456 67.1308C104.647 69.648 102.981 71.3016 100.459 72.0916C97.5916 72.7871 95.1263 72.0905 93.0632 70.0019C91.2042 67.7934 90.7196 65.31 91.6095 62.5517C92.7931 59.7267 94.9071 58.1397 97.9513 57.7907Z" fill="#007FF0" fill-opacity="0.8"/>
<path fill-rule="evenodd" clip-rule="evenodd" d="M98.0954 59.6439C98.0954 60.0073 98.0954 60.3707 98.0954 60.7341C96.3171 60.9561 95.0755 61.8889 94.3703 63.5325C94.1456 64.0979 94.0729 64.6794 94.1522 65.277C94.302 65.4338 94.4777 65.4641 94.6792 65.3679C94.7514 65.3199 94.7938 65.2533 94.8064 65.168C94.8568 63.6551 95.5413 62.5345 96.8598 61.8063C97.3866 61.5474 97.9438 61.4262 98.5315 61.4428C98.6261 61.4107 98.7049 61.3562 98.7678 61.2793C98.8205 60.7368 98.8387 60.1916 98.8223 59.6439C101.1 59.8887 102.681 61.0637 103.565 63.1691C104.236 65.2219 103.884 67.0753 102.511 68.7296C101.513 69.7947 100.284 70.3883 98.8223 70.5104C98.8223 70.1469 98.8223 69.7835 98.8223 69.4201C100.277 69.2597 101.397 68.5692 102.184 67.3485C102.618 66.6074 102.824 65.8079 102.802 64.9499C102.666 64.7303 102.478 64.6758 102.239 64.7864C102.182 64.8305 102.14 64.885 102.111 64.9499C102.011 66.9757 100.976 68.2174 99.004 68.675C98.798 68.6872 98.5921 68.6993 98.3862 68.7114C98.2916 68.7435 98.2129 68.798 98.1499 68.8749C98.0966 69.4165 98.0785 69.9617 98.0954 70.5104C95.8147 70.2702 94.2338 69.0952 93.3527 66.9851C92.5657 64.4565 93.1896 62.3547 95.2243 60.6796C96.0823 60.0645 97.0393 59.7192 98.0954 59.6439Z" fill="#FEFEFE"/>
<path fill-rule="evenodd" clip-rule="evenodd" d="M98.0972 59.6439C98.3395 59.6439 98.5817 59.6439 98.824 59.6439C98.8404 60.1916 98.8222 60.7368 98.7695 61.2793C98.7066 61.3562 98.6279 61.4107 98.5333 61.4428C97.9456 61.4262 97.3883 61.5474 96.8615 61.8063C95.543 62.5345 94.8586 63.6551 94.8081 65.168C94.7956 65.2533 94.7532 65.3199 94.6809 65.3679C94.4794 65.4641 94.3037 65.4338 94.154 65.277C94.0746 64.6794 94.1473 64.0979 94.372 63.5325C95.0772 61.8889 96.3189 60.9561 98.0972 60.7341C98.0972 60.3707 98.0972 60.0073 98.0972 59.6439Z" fill="#D0DCE7"/>
<path opacity="0.946" fill-rule="evenodd" clip-rule="evenodd" d="M105.99 59.9687C106.372 59.9567 106.523 60.1384 106.444 60.5138C106.307 60.7279 106.119 60.7824 105.881 60.6774C105.63 60.3951 105.666 60.1589 105.99 59.9687Z" fill="#94D4FF"/>
<path opacity="0.946" fill-rule="evenodd" clip-rule="evenodd" d="M90.7251 60.3354C91.1067 60.3234 91.2581 60.5051 91.1794 60.8805C91.042 61.0946 90.8543 61.1491 90.6161 61.0441C90.3651 60.7618 90.4014 60.5256 90.7251 60.3354Z" fill="#94D4FF"/>
<path fill-rule="evenodd" clip-rule="evenodd" d="M100.495 63.1315C101.007 63.1194 101.297 63.3616 101.368 63.8584C101.366 64.0154 101.323 64.1608 101.24 64.2945C100.023 65.512 98.8055 66.7294 97.588 67.9469C97.5638 67.9712 97.5396 67.9712 97.5153 67.9469C96.8529 67.3088 96.2169 66.6485 95.6073 65.9662C95.468 65.5 95.6194 65.1669 96.0616 64.9668C96.3138 64.918 96.5439 64.9665 96.7521 65.1122C97.0247 65.3848 97.2973 65.6573 97.5699 65.9299C98.4603 65.0395 99.3507 64.1491 100.241 63.2587C100.329 63.2146 100.414 63.1722 100.495 63.1315Z" fill="#0ACC66"/>
<path fill-rule="evenodd" clip-rule="evenodd" d="M98.8169 70.5118C98.5699 70.5581 98.3276 70.5581 98.09 70.5118C98.073 69.9631 98.0912 69.418 98.1445 68.8763C98.2074 68.7994 98.2862 68.7449 98.3808 68.7128C98.5867 68.7007 98.7926 68.6886 98.9986 68.6765C100.97 68.2188 102.006 66.9771 102.106 64.9513C102.134 64.8864 102.177 64.8319 102.233 64.7878C102.472 64.6772 102.66 64.7317 102.796 64.9513C102.818 65.8093 102.612 66.6088 102.179 67.3499C101.392 68.5706 100.271 69.2611 98.8169 69.4215C98.8169 69.7849 98.8169 70.1483 98.8169 70.5118Z" fill="#D0DCE6"/>
<path opacity="0.946" fill-rule="evenodd" clip-rule="evenodd" d="M90.7251 69.4185C91.1067 69.4065 91.2581 69.5882 91.1794 69.9636C91.042 70.1777 90.8543 70.2322 90.6161 70.1272C90.3651 69.8449 90.4014 69.6087 90.7251 69.4185Z" fill="#94D4FF"/>
<path opacity="0.946" fill-rule="evenodd" clip-rule="evenodd" d="M105.99 69.4185C106.372 69.4065 106.523 69.5882 106.444 69.9636C106.307 70.1777 106.119 70.2322 105.881 70.1272C105.63 69.8449 105.666 69.6087 105.99 69.4185Z" fill="#94D4FF"/>
<path opacity="0.982" fill-rule="evenodd" clip-rule="evenodd" d="M104.093 71.5995C104.765 71.5867 105.062 71.9138 104.984 72.5808C104.73 73.0851 104.349 73.2123 103.839 72.9624C103.403 72.5505 103.403 72.1386 103.839 71.7267C103.927 71.6826 104.012 71.6403 104.093 71.5995Z" fill="#2E3369"/>
<path opacity="0.946" fill-rule="evenodd" clip-rule="evenodd" d="M92.9052 72.3269C93.2867 72.3148 93.4382 72.4965 93.3595 72.872C93.2221 73.0861 93.0343 73.1406 92.7961 73.0355C92.5452 72.7533 92.5815 72.5171 92.9052 72.3269Z" fill="#94D4FF"/>
<g clip-path="url(#clip0_1_805)">
<path d="M45.5127 30.2602V25.4944C45.5127 21.8903 48.4583 19.9474 52.075 19.9474C55.6797 19.9474 58.6378 21.8903 58.6378 25.4944V30.2602H62.7571V25.4944C62.7571 19.6169 57.9637 15.8136 52.0731 15.8136C46.1694 15.8136 41.3905 19.6169 41.3905 25.4944V30.2602H45.5127Z" fill="#ABBADB"/>
<path d="M42.3246 29.3544H61.8264C63.1959 29.3544 64.5093 29.8984 65.4776 30.8668C66.446 31.8352 66.99 33.1486 66.99 34.5181V43.7928H37.1604V34.5181C37.1604 33.8399 37.294 33.1684 37.5535 32.5419C37.813 31.9154 38.1934 31.3461 38.673 30.8666C39.1525 30.3871 39.7218 30.0068 40.3484 29.7473C40.9749 29.4879 41.6464 29.3543 42.3246 29.3544Z" fill="#3D447A"/>
<path d="M52.0753 41.3112C53.3442 41.3112 54.3729 40.2825 54.3729 39.0136C54.3729 37.7447 53.3442 36.716 52.0753 36.716C50.8064 36.716 49.7777 37.7447 49.7777 39.0136C49.7777 40.2825 50.8064 41.3112 52.0753 41.3112Z" fill="#2E3369"/>
<path d="M53.3297 39.9662H50.8203L50.3502 42.8405H53.8003L53.3297 39.9662Z" fill="#2E3369"/>
<path d="M35.7592 61.778H41.8219V68.9195L51.2319 61.778H68.4414C73.637 61.778 77.8654 57.541 77.8654 52.3279L77.8295 52.1214C77.8295 46.9243 73.6017 42.6969 68.4002 42.6969L35.7108 42.7328C30.5151 42.7328 26.2872 46.9606 26.2872 52.1568L26.3216 52.3884C26.3216 57.587 30.5524 61.778 35.7592 61.778ZM63.1027 51.1197L64.1108 49.375L66.0493 50.4935V48.2536H68.0668V50.4911L70.0053 49.3726L71.0138 51.1173L69.0753 52.2358L71.0138 53.3543L70.0053 55.1018L68.0668 53.9828V56.2194H66.0493V53.9853L64.1108 55.1043L63.1027 53.3567L65.0412 52.2382L63.1027 51.1197ZM53.1156 51.1197L54.1241 49.375L56.0626 50.4935V48.2536H58.0796V50.4911L60.0181 49.3726L61.0266 51.1173L59.0881 52.2358L61.0266 53.3543L60.0181 55.1018L58.0796 53.9828V56.2194H56.0611V53.9853L54.1226 55.1043L53.1141 53.3567L55.0526 52.2382L53.1156 51.1197ZM43.128 51.1197L44.136 49.375L46.0745 50.4935V48.2536H48.092V50.4911L50.0305 49.3726L51.039 51.1173L49.1005 52.2358L51.039 53.3543L50.0305 55.1018L48.092 53.9828V56.2194H46.073V53.9853L44.1345 55.1043L43.1265 53.3567L45.065 52.2382L43.128 51.1197ZM33.1403 51.1197L34.1488 49.375L36.0873 50.4935V48.2536H38.1048V50.4911L40.0433 49.3726L41.0518 51.1173L39.1133 52.2358L41.0518 53.3543L40.0433 55.1018L38.1048 53.9828V56.2194H36.0864V53.9853L34.1479 55.1043L33.1393 53.3567L35.0778 52.2382L33.1403 51.1197Z" fill="url(#paint0_linear_1_805)"/>
<path d="M51.9987 78.3356C46.3774 78.3395 40.8326 77.0329 35.8044 74.5196C35.3581 74.2938 34.888 74.0447 34.4063 73.7777C32.3507 72.6221 30.4104 71.2724 28.6121 69.747L28.7745 72.9267L26.2646 73.0532L25.8856 65.6384L33.3004 65.2589L33.4288 67.7688L30.3534 67.9258C31.9941 69.3057 33.7601 70.5292 35.6285 71.5804C36.0686 71.8227 36.5081 72.0568 36.9341 72.2729C41.6143 74.6035 46.7708 75.8184 51.9992 75.8223C61.6117 75.8223 70.7958 71.7548 77.1968 64.6643C87.3555 53.4098 88.7793 36.6171 80.6526 23.8283L80.5193 23.6185L82.641 22.2708L82.7743 22.4806C91.5009 36.2192 89.9749 54.2584 79.0621 66.3484C75.8249 69.9404 71.8979 72.844 67.5149 74.8865C63.2297 76.8948 58.5944 78.0498 53.8679 78.2871C53.2476 78.3196 52.619 78.3356 51.9987 78.3356Z" fill="#007FF0"/>
<path d="M21.3739 61.4931C12.6467 47.7554 14.1733 29.7148 25.0875 17.6253C31.9615 10.0094 41.8226 5.64152 52.1417 5.64152C57.7651 5.63767 63.3117 6.94629 68.3403 9.46327C68.7654 9.66875 69.2296 9.91252 69.7559 10.2067C71.807 11.3602 73.7432 12.7071 75.538 14.2291L75.3761 11.0601L77.886 10.9322L78.265 18.3469L70.8502 18.7264L70.7218 16.2165L73.8084 16.0585C72.1664 14.6771 70.3987 13.4524 68.5284 12.4006C68.0476 12.1316 67.6226 11.9087 67.2305 11.7187C62.542 9.37925 57.3747 8.15913 52.135 8.1543C42.5297 8.1543 33.3504 12.2203 26.9514 19.3094C16.7927 30.5634 15.3713 47.3561 23.4951 60.1458L23.6288 60.3557L21.5071 61.7029L21.3739 61.4931Z" fill="#007FF0"/>
</g>
<defs>
<linearGradient id="paint0_linear_1_805" x1="52.0763" y1="42.6969" x2="52.0763" y2="68.9198" gradientUnits="userSpaceOnUse">
<stop stop-color="#1E94FD"/>
<stop offset="1" stop-color="#294DFF"/>
</linearGradient>
<clipPath id="clip0_1_805">
<rect width="72.6816" height="72.6938" fill="white" transform="translate(15.7344 5.64062)"/>
</clipPath>
</defs>
</svg>
