<svg width="28" height="28" viewBox="0 0 28 28" fill="none" xmlns="http://www.w3.org/2000/svg">
<path d="M14.3006 27.3974C11.5912 27.3975 8.94265 26.5942 6.68984 25.089C4.43704 23.5838 2.68119 21.4443 1.64434 18.9412C0.607485 16.438 0.336207 13.6836 0.864809 11.0263C1.39341 8.36898 2.69815 5.92809 4.61403 4.01231C7.18307 1.44327 10.6674 -2.70692e-08 14.3006 0C17.9338 2.70692e-08 21.4181 1.44327 23.9872 4.01231C26.5562 6.58135 27.9995 10.0657 27.9995 13.6989C27.9995 17.3321 26.5562 20.8164 23.9872 23.3855C22.7179 24.6613 21.2083 25.6728 19.5456 26.3614C17.883 27.0501 16.1002 27.4022 14.3006 27.3974ZM16.8365 13.6715C18.3117 13.6715 18.3117 15.0713 18.3117 16.0936V20.5353H21.1499V15.5259C21.1499 13.2657 20.7372 11.1749 17.7449 11.1749C17.2059 11.1565 16.6718 11.2838 16.1991 11.5436C15.7264 11.8034 15.3325 12.186 15.0592 12.6509H15.0198V11.4018H12.2989V20.5353H15.1345V16.0182C15.1345 14.8581 15.3366 13.6723 16.8365 13.6723V13.6715ZM7.67565 11.4018V20.5353H10.5172V11.4018H7.67565ZM9.09773 6.86417C8.77203 6.86384 8.45355 6.96011 8.18258 7.14081C7.9116 7.32151 7.70031 7.57852 7.57544 7.87933C7.45057 8.18014 7.41772 8.51123 7.48105 8.83071C7.54438 9.15019 7.70105 9.44371 7.93123 9.67414C8.16142 9.90456 8.45477 10.0615 8.77419 10.1252C9.09361 10.1889 9.42473 10.1564 9.72567 10.0318C10.0266 9.90724 10.2838 9.69622 10.4648 9.42543C10.6458 9.15465 10.7424 8.83627 10.7424 8.51057C10.7424 8.07412 10.5694 7.65548 10.2613 7.34639C9.95313 7.03729 9.53503 6.86297 9.09858 6.86161L9.09773 6.86417Z" fill="#007AB9"/>
</svg>
