<svg width="891" height="254" viewBox="0 0 891 254" fill="none" xmlns="http://www.w3.org/2000/svg">
<path d="M319.638 157.134C313.183 157.241 306.758 156.238 300.644 154.168C294.761 151.981 289.368 148.652 284.777 144.372C283.737 143.635 282.873 142.677 282.248 141.566C281.773 140.437 281.523 139.227 281.512 138.002C281.514 136.11 282.257 134.294 283.581 132.943C284.235 132.213 285.036 131.63 285.932 131.233C286.828 130.837 287.798 130.636 288.778 130.644C290.41 130.654 291.987 131.231 293.239 132.276C296.684 135.52 300.638 138.177 304.944 140.141C309.559 142 314.502 142.908 319.477 142.808C323.177 142.856 326.852 142.201 330.308 140.876C333.358 139.807 336.109 138.025 338.333 135.68C340.26 133.634 341.323 130.924 341.299 128.114C341.429 124.899 340.308 121.759 338.172 119.353C335.808 116.705 332.797 114.716 329.434 113.581C325.022 111.804 320.448 110.464 315.775 109.58C311.208 108.787 306.732 107.539 302.414 105.855C298.812 104.411 295.46 102.409 292.48 99.9218C289.75 97.4957 287.576 94.5067 286.111 91.1606C284.527 87.4569 283.744 83.4606 283.811 79.4331C283.671 73.8689 285.333 68.4084 288.548 63.8653C291.865 59.3947 296.331 55.9062 301.472 53.7703C307.291 51.3228 313.555 50.1092 319.868 50.2061C325.83 50.1593 331.754 51.1634 337.367 53.1724C342.283 54.7433 346.79 57.3818 350.567 60.8989C351.614 61.6805 352.476 62.6832 353.092 63.8358C353.708 64.9883 354.063 66.2624 354.131 67.5675C354.065 69.4919 353.238 71.3114 351.831 72.6265C351.227 73.3375 350.477 73.9107 349.632 74.3074C348.787 74.704 347.867 74.915 346.933 74.926C345.65 74.9495 344.398 74.5269 343.392 73.7302C341.548 71.8689 339.382 70.3573 336.999 69.2691C334.248 67.8621 331.368 66.7225 328.399 65.8658C325.613 65.0012 322.716 64.5518 319.799 64.5321C315.877 64.4241 311.972 65.0801 308.301 66.4637C305.448 67.4143 302.926 69.1618 301.035 71.4997C299.333 73.5945 298.435 76.2289 298.505 78.9272C298.394 81.9442 299.392 84.8974 301.311 87.2285C303.594 89.5998 306.385 91.4236 309.474 92.5634C313.357 93.979 317.319 95.1691 321.34 96.1276C326.265 97.1784 331.125 98.5144 335.896 100.129C339.857 101.418 343.567 103.378 346.864 105.924C349.84 108.176 352.21 111.131 353.763 114.524C355.442 118.618 356.226 123.025 356.062 127.447C356.171 133.053 354.398 138.534 351.026 143.015C347.54 147.57 342.938 151.149 337.666 153.409C331.921 155.955 325.692 157.226 319.408 157.134H319.638ZM372.527 78.4903H407.388C409.201 78.5423 410.926 79.2859 412.208 80.5685C413.491 81.8511 414.234 83.5757 414.286 85.3888C414.311 86.2821 414.139 87.1698 413.781 87.9887C413.423 88.8075 412.889 89.5373 412.217 90.1259C411.575 90.7645 410.81 91.2653 409.967 91.5974C409.125 91.9296 408.224 92.0861 407.319 92.0575H372.596C370.729 92.1005 368.92 91.4066 367.56 90.1259C366.294 88.8128 365.599 87.0517 365.628 85.2279C365.6 84.3229 365.756 83.4217 366.089 82.5794C366.421 81.7372 366.921 80.9717 367.56 80.3299C368.922 79.0554 370.732 78.3695 372.596 78.4213L372.527 78.4903ZM388.095 59.2202C389.1 59.1998 390.098 59.3944 391.022 59.791C391.946 60.1876 392.775 60.777 393.453 61.5197C394.143 62.2261 394.682 63.0652 395.037 63.9862C395.393 64.9073 395.558 65.891 395.522 66.8776V135.726C395.46 137.211 395.768 138.689 396.419 140.026C396.88 141.047 397.698 141.864 398.719 142.325C399.761 142.725 400.868 142.928 401.984 142.923C402.953 142.945 403.913 142.74 404.789 142.325C405.781 141.919 406.846 141.724 407.917 141.75C408.547 141.769 409.165 141.925 409.729 142.207C410.293 142.489 410.789 142.89 411.182 143.383C412.22 144.621 412.746 146.208 412.654 147.821C412.614 149.048 412.233 150.24 411.555 151.263C410.877 152.286 409.928 153.101 408.814 153.616C406.292 155.106 403.419 155.9 400.489 155.915C398.504 155.889 396.522 155.735 394.556 155.455C392.21 155.108 389.949 154.329 387.888 153.156C385.655 151.8 383.853 149.839 382.691 147.499C381.144 144.001 380.435 140.19 380.621 136.369V66.8776C380.587 65.8885 380.754 64.9026 381.112 63.9799C381.47 63.0571 382.011 62.2166 382.703 61.5092C383.396 60.8019 384.224 60.2425 385.139 59.8648C386.054 59.4872 387.036 59.2992 388.026 59.3122L388.095 59.2202ZM495.483 76.4207C496.486 76.3929 497.483 76.5843 498.404 76.9815C499.325 77.3786 500.149 77.972 500.818 78.7202C501.509 79.4207 502.049 80.2556 502.405 81.1732C502.761 82.0908 502.925 83.0716 502.887 84.0551V148.166C502.938 150.197 502.195 152.168 500.818 153.662C500.116 154.351 499.28 154.89 498.363 155.246C497.446 155.602 496.466 155.767 495.483 155.731C494.5 155.76 493.522 155.592 492.606 155.236C491.69 154.881 490.854 154.346 490.148 153.662C488.753 152.177 488.001 150.202 488.055 148.166V137.473L491.183 137.933C491.018 140.094 490.218 142.158 488.883 143.866C487.289 146.273 485.334 148.421 483.088 150.236C480.428 152.324 477.486 154.027 474.35 155.295C470.889 156.597 467.217 157.251 463.519 157.226C457.013 157.312 450.623 155.506 445.123 152.029C439.614 148.394 435.157 143.374 432.2 137.473C428.963 130.988 427.338 123.818 427.463 116.57C427.328 109.263 428.953 102.031 432.2 95.4838C435.118 89.6496 439.52 84.6852 444.962 81.0887C450.364 77.6405 456.651 75.8351 463.059 75.8918C467.065 75.8537 471.042 76.5633 474.787 77.9844C478.222 79.2331 481.43 81.0351 484.284 83.3192C486.719 85.2215 488.778 87.561 490.355 90.2178C491.765 92.2504 492.563 94.6444 492.654 97.1164L488.055 97.5763V84.0551C488.023 82.0749 488.765 80.1603 490.125 78.7202C490.814 77.9921 491.645 77.4126 492.566 77.0171C493.488 76.6217 494.48 76.4187 495.483 76.4207ZM465.221 143.498C469.587 143.574 473.874 142.332 477.523 139.934C481.116 137.528 483.986 134.189 485.825 130.276C487.839 125.958 488.853 121.242 488.791 116.478C488.874 111.713 487.859 106.992 485.825 102.681C483.974 98.7758 481.106 95.44 477.523 93.0233C473.872 90.6316 469.585 89.3974 465.221 89.482C460.9 89.395 456.656 90.6306 453.056 93.0233C449.519 95.4977 446.658 98.8179 444.732 102.681C442.696 106.991 441.681 111.713 441.766 116.478C441.694 121.243 442.709 125.961 444.732 130.276C446.645 134.147 449.509 137.47 453.056 139.934C456.667 142.368 460.935 143.644 465.29 143.59L465.221 143.498ZM560.766 45.9979C562.72 46.0103 564.666 46.2573 566.561 46.7338C568.376 47.1451 570.055 48.0161 571.436 49.2632C572.129 49.8053 572.681 50.5063 573.045 51.3068C573.409 52.1074 573.575 52.984 573.529 53.8623C573.601 55.6636 572.966 57.4217 571.758 58.7603C571.224 59.3279 570.579 59.7799 569.863 60.0884C569.147 60.3969 568.375 60.5553 567.596 60.5539C566.245 60.4987 564.903 60.2983 563.595 59.9561C561.953 59.4661 560.249 59.2182 558.536 59.2202C556.578 59.1157 554.644 59.6926 553.063 60.8529C551.695 61.7949 550.651 63.136 550.074 64.6931C549.508 66.1129 549.211 67.6258 549.2 69.1542V148.097C549.208 149.121 549.009 150.136 548.614 151.081C548.218 152.025 547.635 152.88 546.9 153.593C546.221 154.275 545.41 154.81 544.516 155.166C543.622 155.522 542.665 155.691 541.703 155.662C540.721 155.69 539.743 155.521 538.827 155.166C537.911 154.81 537.075 154.275 536.368 153.593C534.991 152.099 534.248 150.128 534.299 148.097V69.3841C534.187 66.2802 534.723 63.1871 535.871 60.3012C537.019 57.4153 538.754 54.7997 540.967 52.6206C545.566 48.2668 552.143 46.0899 560.697 46.0899L560.766 45.9979ZM563.802 78.9502C564.705 78.9225 565.604 79.0773 566.445 79.4052C567.287 79.7332 568.054 80.2276 568.7 80.8588C569.649 81.8272 570.292 83.054 570.548 84.3857C570.804 85.7175 570.662 87.0951 570.139 88.3464C569.616 89.5978 568.736 90.6674 567.609 91.4215C566.482 92.1756 565.158 92.5807 563.802 92.5863H525.377C523.553 92.6153 521.792 91.9208 520.479 90.6547C519.252 89.3184 518.572 87.5706 518.572 85.7568C518.572 83.9429 519.252 82.1951 520.479 80.8588C521.795 79.6011 523.556 78.915 525.377 78.9502H563.802ZM621.819 45.9979C623.765 46.0103 625.703 46.2574 627.591 46.7338C629.411 47.1501 631.096 48.0202 632.489 49.2632C633.178 49.8078 633.728 50.5093 634.092 51.3092C634.456 52.1092 634.624 52.9845 634.581 53.8623C634.647 55.6668 634.003 57.4253 632.788 58.7603C632.255 59.3301 631.61 59.7835 630.894 60.0922C630.178 60.4008 629.405 60.5581 628.625 60.5539C627.274 60.4971 625.933 60.2967 624.624 59.9561C622.991 59.4644 621.294 59.2164 619.588 59.2202C617.624 59.1198 615.684 59.6961 614.092 60.8529C612.737 61.8027 611.703 63.1419 611.126 64.6931C610.549 66.1097 610.253 67.6247 610.252 69.1542V148.097C610.261 149.121 610.061 150.136 609.666 151.081C609.271 152.025 608.688 152.88 607.953 153.593C607.272 154.273 606.461 154.807 605.567 155.162C604.674 155.518 603.717 155.688 602.756 155.662C601.773 155.69 600.796 155.521 599.88 155.166C598.963 154.81 598.128 154.275 597.421 153.593C596.037 152.102 595.286 150.131 595.328 148.097V69.3841C595.221 66.2787 595.761 63.185 596.913 60.2992C598.065 57.4134 599.804 54.7986 602.02 52.6206C606.619 48.2668 613.196 46.0899 621.75 46.0899L621.819 45.9979ZM624.785 78.9502C625.688 78.9225 626.587 79.0773 627.429 79.4052C628.27 79.7332 629.037 80.2276 629.683 80.8588C630.632 81.8272 631.275 83.054 631.531 84.3857C631.787 85.7175 631.645 87.0951 631.122 88.3464C630.6 89.5978 629.72 90.6674 628.593 91.4215C627.466 92.1756 626.141 92.5807 624.785 92.5863H586.36C584.536 92.6153 582.775 91.9208 581.462 90.6547C580.221 89.3259 579.53 87.5753 579.53 85.7568C579.53 83.9383 580.221 82.1876 581.462 80.8588C582.779 79.6011 584.54 78.915 586.36 78.9502H624.785ZM724.677 51.4938C726.657 51.461 728.571 52.2038 730.012 53.5634C730.736 54.1917 731.317 54.9689 731.713 55.8419C732.11 56.7149 732.314 57.6633 732.311 58.6223C732.298 59.7949 732.048 60.9526 731.575 62.0256L694.047 150.764C693.369 152.308 692.228 153.601 690.782 154.467C689.585 155.229 688.199 155.643 686.78 155.662C685.36 155.541 683.988 155.084 682.779 154.329C681.534 153.474 680.555 152.287 679.951 150.902L642.423 62.0256C642.228 61.5491 642.074 61.0567 641.963 60.5539C641.871 59.9605 641.825 59.3608 641.825 58.7603C641.782 57.7327 641.991 56.7102 642.431 55.7808C642.872 54.8515 643.532 54.0431 644.354 53.4254C645.727 52.2552 647.45 51.5756 649.252 51.4938C650.767 51.4979 652.244 51.971 653.479 52.848C654.714 53.725 655.647 54.963 656.151 56.3918L690.115 136.875H685.815L717.87 56.1389C718.365 54.7169 719.301 53.4902 720.542 52.638C721.783 51.7858 723.264 51.3526 724.769 51.4018L724.677 51.4938ZM762.021 148.074C762.079 150.106 761.336 152.08 759.951 153.57C759.246 154.263 758.408 154.805 757.487 155.165C756.566 155.525 755.582 155.694 754.594 155.662C753.61 155.683 752.632 155.509 751.717 155.15C750.801 154.79 749.966 154.254 749.259 153.57C747.874 152.08 747.131 150.106 747.189 148.074V84.676C747.158 83.6877 747.327 82.7033 747.686 81.782C748.045 80.8607 748.587 80.0214 749.278 79.3148C749.97 78.6081 750.797 78.0486 751.711 77.6698C752.624 77.291 753.605 77.1007 754.594 77.1105C755.598 77.0946 756.595 77.2912 757.518 77.6875C758.442 78.0838 759.271 78.6708 759.951 79.4101C760.643 80.1105 761.183 80.9454 761.539 81.863C761.895 82.7806 762.059 83.7615 762.021 84.745V148.258V148.074ZM754.456 67.2226C752.272 67.3995 750.089 66.876 748.224 65.7279C747.553 65.0532 747.035 64.2419 746.705 63.349C746.376 62.4562 746.243 61.5028 746.315 60.5539V58.2544C746.207 57.2827 746.341 56.2992 746.707 55.3922C747.072 54.4852 747.656 53.683 748.408 53.0575C750.286 51.9419 752.461 51.4283 754.639 51.5858C756.888 51.376 759.139 51.9531 761.009 53.2184C761.705 53.8467 762.242 54.6302 762.578 55.5052C762.913 56.3803 763.038 57.3222 762.941 58.2544V60.5539C763.059 61.5447 762.932 62.5492 762.571 63.4794C762.21 64.4096 761.627 65.237 760.871 65.8889C758.95 67.0466 756.714 67.5695 754.478 67.3835L754.456 67.2226ZM832.272 142.003C833.176 141.975 834.078 142.131 834.92 142.463C835.762 142.795 836.528 143.296 837.17 143.935C837.848 144.555 838.385 145.312 838.746 146.157C839.107 147.002 839.283 147.914 839.262 148.833C839.272 149.746 839.092 150.652 838.731 151.492C838.371 152.331 837.839 153.086 837.17 153.708C836.528 154.346 835.762 154.847 834.92 155.179C834.078 155.512 833.176 155.668 832.272 155.639H784.349C783.391 155.663 782.439 155.468 781.566 155.07C780.694 154.672 779.924 154.08 779.313 153.34C778.152 152.093 777.517 150.445 777.543 148.741C777.612 147.697 777.759 146.659 777.98 145.636C778.4 144.43 779.056 143.32 779.911 142.371L819.532 89.8499V91.6205H786.442C784.568 91.6622 782.752 90.9689 781.383 89.689C780.131 88.3779 779.445 86.6266 779.474 84.814C779.447 83.9111 779.601 83.012 779.929 82.1704C780.257 81.3288 780.752 80.562 781.383 79.916C782.754 78.6381 784.569 77.9451 786.442 77.9844H832.134C833.046 77.9806 833.948 78.1859 834.769 78.5845C835.59 78.9831 836.309 79.5644 836.871 80.2839C837.547 80.9508 838.06 81.7643 838.371 82.6616C838.682 83.5588 838.782 84.5156 838.664 85.4578C838.675 86.3679 838.551 87.2746 838.296 88.1483C837.945 89.1833 837.39 90.1373 836.664 90.9537L797.572 142.9L796.974 142.003H832.272Z" fill="#222222"/>
<path opacity="0.9" d="M305.451 207.54L298.967 198.342C298.204 198.437 297.436 198.484 296.667 198.48H289.056V207.448H286.066V179.233H296.667C299.717 179.045 302.731 179.968 305.152 181.831C306.174 182.702 306.982 183.795 307.516 185.027C308.05 186.258 308.296 187.596 308.234 188.937C308.325 190.936 307.732 192.907 306.554 194.524C305.375 196.142 303.68 197.31 301.749 197.836L308.648 207.54H305.382H305.451ZM303.152 194.156C303.908 193.519 304.508 192.718 304.906 191.813C305.305 190.908 305.491 189.924 305.451 188.937C305.493 187.938 305.308 186.944 304.91 186.028C304.512 185.111 303.91 184.298 303.152 183.648C301.283 182.308 299.008 181.658 296.713 181.808H289.194V195.996H296.713C298.977 196.125 301.216 195.476 303.06 194.156H303.152Z" fill="#222222"/>
<path opacity="0.9" d="M333.254 197.79H315.456C315.5 198.809 315.748 199.809 316.187 200.729C316.625 201.65 317.245 202.472 318.008 203.148C319.622 204.536 321.699 205.266 323.826 205.195C325.081 205.214 326.327 204.972 327.482 204.482C328.582 204.014 329.558 203.298 330.334 202.389L331.967 204.252C331.013 205.391 329.798 206.283 328.425 206.85C326.965 207.444 325.402 207.741 323.826 207.724C321.802 207.761 319.801 207.287 318.008 206.345C316.364 205.448 315.002 204.11 314.076 202.481C313.124 200.775 312.64 198.847 312.673 196.894C312.642 194.956 313.101 193.042 314.007 191.329C314.87 189.728 316.159 188.399 317.732 187.488C319.347 186.561 321.182 186.084 323.044 186.109C324.907 186.079 326.743 186.556 328.356 187.488C329.916 188.392 331.19 189.714 332.035 191.306C332.939 193.028 333.398 194.949 333.369 196.894L333.254 197.79ZM317.824 190.524C316.441 191.884 315.621 193.714 315.525 195.652H330.61C330.514 193.714 329.693 191.884 328.31 190.524C326.905 189.21 325.036 188.507 323.113 188.569C322.168 188.538 321.226 188.695 320.342 189.031C319.458 189.366 318.649 189.874 317.962 190.524H317.824Z" fill="#222222"/>
<path opacity="0.9" d="M358.577 177.531V207.54H355.817V203.332C355.009 204.716 353.83 205.847 352.414 206.597C350.931 207.368 349.279 207.755 347.608 207.724C345.718 207.758 343.853 207.29 342.204 206.367C340.599 205.467 339.277 204.137 338.387 202.527C337.455 200.798 336.988 198.857 337.03 196.893C336.998 194.938 337.465 193.007 338.387 191.282C339.264 189.668 340.59 188.343 342.204 187.465C343.853 186.542 345.718 186.074 347.608 186.109C349.203 186.09 350.78 186.453 352.207 187.166C353.61 187.891 354.793 188.979 355.633 190.317V177.531H358.577ZM351.885 204.16C353.09 203.469 354.071 202.448 354.713 201.216C355.394 199.877 355.749 198.396 355.749 196.893C355.749 195.391 355.394 193.91 354.713 192.57C354.07 191.346 353.088 190.332 351.885 189.65C350.659 188.955 349.27 188.597 347.861 188.615C346.436 188.594 345.032 188.951 343.791 189.65C342.592 190.338 341.612 191.35 340.962 192.57C340.282 193.91 339.927 195.391 339.927 196.893C339.927 198.396 340.282 199.877 340.962 201.216C341.604 202.448 342.586 203.469 343.791 204.16C345.031 204.861 346.436 205.218 347.861 205.195C349.271 205.219 350.661 204.861 351.885 204.16Z" fill="#222222"/>
<path opacity="0.9" d="M385.084 197.79H367.309C367.353 198.807 367.6 199.804 368.034 200.724C368.468 201.644 369.082 202.468 369.838 203.148C371.46 204.538 373.544 205.268 375.679 205.195C376.926 205.212 378.164 204.969 379.312 204.482C380.419 204.015 381.402 203.299 382.187 202.389L383.796 204.252C382.843 205.391 381.628 206.283 380.255 206.85C378.573 207.504 376.772 207.797 374.97 207.71C373.167 207.622 371.403 207.157 369.792 206.345C368.136 205.455 366.765 204.116 365.837 202.481C364.931 200.762 364.457 198.848 364.457 196.905C364.457 194.962 364.931 193.048 365.837 191.329C366.686 189.719 367.979 188.386 369.562 187.489C371.182 186.584 373.007 186.11 374.863 186.11C376.718 186.11 378.543 186.584 380.163 187.489C381.722 188.392 382.997 189.714 383.842 191.306C384.752 193.025 385.211 194.948 385.176 196.894L385.084 197.79ZM369.654 190.524C368.28 191.89 367.461 193.717 367.355 195.652H382.439C382.353 193.712 381.531 191.879 380.14 190.524C378.711 189.263 376.872 188.567 374.966 188.567C373.061 188.567 371.221 189.263 369.792 190.524H369.654Z" fill="#222222"/>
<path opacity="0.9" d="M395.232 180.774C394.538 181.608 394.2 182.682 394.289 183.763V186.27H400.843V188.684H394.358V207.54H391.484V188.684H387.598V186.27H391.392V183.648C391.352 182.809 391.48 181.969 391.768 181.18C392.056 180.39 392.499 179.666 393.071 179.049C393.708 178.459 394.459 178.004 395.277 177.712C396.095 177.419 396.963 177.295 397.831 177.348C398.61 177.351 399.384 177.467 400.13 177.692C400.828 177.885 401.479 178.222 402.039 178.681L401.073 180.82C400.179 180.112 399.062 179.745 397.923 179.785C397.406 179.741 396.886 179.808 396.398 179.983C395.91 180.157 395.465 180.435 395.094 180.797L395.232 180.774ZM407.902 181.004C407.707 180.818 407.553 180.592 407.45 180.343C407.347 180.093 407.298 179.825 407.305 179.555C407.298 179.289 407.348 179.024 407.451 178.778C407.554 178.532 407.708 178.311 407.902 178.129C408.1 177.936 408.333 177.784 408.59 177.681C408.847 177.578 409.121 177.528 409.397 177.531C409.672 177.521 409.947 177.566 410.204 177.665C410.461 177.764 410.695 177.914 410.892 178.106C411.088 178.284 411.244 178.5 411.351 178.742C411.458 178.983 411.513 179.245 411.513 179.509C411.513 180.07 411.29 180.608 410.893 181.005C410.496 181.402 409.958 181.625 409.397 181.625C409.119 181.63 408.842 181.577 408.585 181.47C408.328 181.363 408.095 181.205 407.902 181.004ZM407.902 186.27H410.777V207.54H407.902V186.27Z" fill="#222222"/>
<path opacity="0.9" d="M436.016 188.431C436.83 189.347 437.453 190.418 437.848 191.579C438.243 192.74 438.402 193.968 438.315 195.191V207.54H435.441V195.49C435.57 193.652 434.976 191.837 433.785 190.431C433.163 189.823 432.419 189.353 431.603 189.052C430.787 188.751 429.916 188.625 429.048 188.683C428.051 188.632 427.055 188.788 426.121 189.14C425.187 189.492 424.336 190.033 423.621 190.73C422.929 191.488 422.396 192.378 422.052 193.345C421.708 194.313 421.562 195.339 421.621 196.364V207.54H418.746V186.269H421.483V190.178C422.269 188.889 423.4 187.846 424.748 187.166C426.249 186.429 427.905 186.066 429.577 186.108C430.739 186.042 431.902 186.211 432.997 186.606C434.092 187.002 435.095 187.614 435.947 188.408L436.016 188.431Z" fill="#222222"/>
<path opacity="0.9" d="M446.141 181.003C445.95 180.814 445.799 180.588 445.696 180.339C445.593 180.09 445.541 179.824 445.543 179.555C445.541 179.289 445.592 179.025 445.695 178.78C445.798 178.535 445.95 178.313 446.141 178.129C446.548 177.737 447.094 177.522 447.659 177.531C448.213 177.517 448.751 177.724 449.153 178.106C449.342 178.288 449.492 178.506 449.595 178.746C449.697 178.987 449.751 179.247 449.751 179.509C449.751 179.927 449.626 180.335 449.394 180.683C449.161 181.03 448.831 181.301 448.445 181.461C448.059 181.621 447.634 181.663 447.224 181.581C446.814 181.5 446.437 181.299 446.141 181.003ZM446.141 186.269H449.015V207.54H446.141V186.269Z" fill="#222222"/>
<path opacity="0.9" d="M474.266 188.431C475.09 189.341 475.72 190.411 476.115 191.573C476.511 192.736 476.664 193.968 476.565 195.192V207.54H473.691V195.491C473.82 193.653 473.226 191.837 472.035 190.432C471.417 189.824 470.678 189.354 469.865 189.053C469.053 188.752 468.186 188.626 467.321 188.684C466.321 188.632 465.321 188.788 464.383 189.14C463.445 189.492 462.59 190.033 461.871 190.731C461.179 191.489 460.646 192.378 460.302 193.346C459.958 194.313 459.812 195.339 459.871 196.364V207.54H456.996V186.27H459.756V190.179C460.536 188.885 461.668 187.84 463.021 187.166C464.522 186.43 466.178 186.067 467.85 186.109C469.012 186.044 470.175 186.214 471.269 186.609C472.364 187.004 473.367 187.616 474.22 188.408L474.266 188.431Z" fill="#222222"/>
<path opacity="0.9" d="M504.202 186.27V204.942C504.324 206.389 504.153 207.845 503.698 209.224C503.244 210.603 502.516 211.877 501.557 212.967C500.465 213.908 499.198 214.624 497.829 215.074C496.46 215.524 495.015 215.699 493.578 215.589C491.673 215.596 489.779 215.301 487.967 214.715C486.376 214.231 484.909 213.407 483.667 212.3L485.116 210.116C486.176 211.086 487.419 211.837 488.772 212.323C490.248 212.848 491.804 213.113 493.371 213.105C495.528 213.291 497.67 212.613 499.327 211.22C500.019 210.423 500.545 209.496 500.873 208.493C501.201 207.49 501.324 206.431 501.235 205.379V202.665C500.366 203.986 499.159 205.05 497.74 205.747C496.236 206.448 494.593 206.802 492.934 206.782C491.044 206.807 489.178 206.356 487.507 205.471C485.904 204.633 484.572 203.357 483.667 201.792C482.748 200.16 482.266 198.318 482.266 196.445C482.266 194.572 482.748 192.731 483.667 191.099C484.566 189.548 485.891 188.287 487.484 187.466C489.161 186.576 491.036 186.125 492.934 186.155C494.631 186.133 496.309 186.511 497.832 187.259C499.271 187.967 500.488 189.057 501.35 190.409V186.316H504.087L504.202 186.27ZM497.487 203.125C498.691 202.494 499.695 201.538 500.384 200.366C501.083 199.133 501.44 197.736 501.419 196.319C501.446 194.908 501.088 193.517 500.384 192.295C499.697 191.129 498.703 190.174 497.51 189.535C496.217 188.893 494.792 188.559 493.348 188.559C491.904 188.559 490.479 188.893 489.186 189.535C487.977 190.152 486.977 191.112 486.311 192.295C485.607 193.525 485.249 194.924 485.277 196.342C485.256 197.759 485.613 199.156 486.311 200.389C486.992 201.56 487.988 202.516 489.186 203.148C490.459 203.824 491.884 204.165 493.325 204.137C494.775 204.155 496.207 203.807 497.487 203.125Z" fill="#222222"/>
<path opacity="0.9" d="M562.361 179.232L552.818 207.54H549.668L541.389 183.395L533.065 207.54H529.938L520.395 179.232H523.476L531.639 203.561L540.078 179.232H542.884L551.208 203.699L559.486 179.232H562.361Z" fill="#222222"/>
<path opacity="0.9" d="M568.705 206.344C567.084 205.432 565.741 204.097 564.819 202.481C563.867 200.775 563.383 198.847 563.416 196.893C563.38 194.947 563.864 193.026 564.819 191.328C565.729 189.71 567.075 188.379 568.705 187.488C570.412 186.582 572.314 186.109 574.247 186.109C576.179 186.109 578.082 186.582 579.789 187.488C581.416 188.373 582.757 189.706 583.652 191.328C584.596 193.03 585.079 194.948 585.054 196.893C585.077 198.846 584.594 200.771 583.652 202.481C582.746 204.101 581.408 205.438 579.789 206.344C578.082 207.25 576.179 207.724 574.247 207.724C572.314 207.724 570.412 207.25 568.705 206.344ZM578.317 204.16C579.52 203.474 580.495 202.451 581.122 201.217C581.787 199.872 582.133 198.393 582.133 196.893C582.133 195.394 581.787 193.914 581.122 192.57C580.495 191.342 579.519 190.326 578.317 189.65C577.067 188.972 575.668 188.616 574.247 188.616C572.825 188.616 571.426 188.972 570.177 189.65C568.978 190.338 567.998 191.35 567.348 192.57C566.668 193.91 566.313 195.391 566.313 196.893C566.313 198.396 566.668 199.877 567.348 201.217C567.99 202.448 568.972 203.469 570.177 204.16C571.426 204.838 572.825 205.193 574.247 205.193C575.668 205.193 577.067 204.838 578.317 204.16Z" fill="#222222"/>
<path opacity="0.9" d="M596.67 187.19C598.204 186.428 599.902 186.057 601.614 186.109V188.891H600.924C599.956 188.845 598.988 189.003 598.085 189.355C597.181 189.708 596.362 190.247 595.681 190.938C594.329 192.555 593.646 194.628 593.773 196.733V207.563H590.898V186.293H593.658V190.455C594.279 189.073 595.337 187.933 596.67 187.212V187.19Z" fill="#222222"/>
<path opacity="0.9" d="M614.676 196.87L609.663 201.469V207.54H606.789V177.531H609.663V197.882L622.357 186.269H625.921L616.838 194.962L626.772 207.54H623.254L614.676 196.87Z" fill="#222222"/>
<path opacity="0.9" d="M642.289 179.233H653.787C656.53 179.175 659.247 179.791 661.697 181.026C663.919 182.161 665.776 183.898 667.055 186.039C668.293 188.29 668.942 190.818 668.942 193.386C668.942 195.955 668.293 198.482 667.055 200.733C665.769 202.869 663.914 204.605 661.697 205.746C659.247 206.982 656.53 207.598 653.787 207.54H642.289V179.233ZM653.649 204.941C655.907 204.999 658.143 204.493 660.156 203.47C661.961 202.54 663.467 201.122 664.503 199.377C665.541 197.55 666.065 195.476 666.02 193.375C666.06 191.275 665.536 189.202 664.503 187.373C663.472 185.629 661.964 184.217 660.156 183.303C658.145 182.271 655.909 181.758 653.649 181.808H645.278V204.941H653.649Z" fill="#222222"/>
<path opacity="0.9" d="M692.951 186.27L682.327 210.024C681.706 211.665 680.677 213.121 679.337 214.255C678.149 215.115 676.711 215.56 675.244 215.52C674.265 215.528 673.292 215.365 672.37 215.037C671.503 214.724 670.717 214.221 670.07 213.565L671.404 211.426C671.907 211.946 672.512 212.357 673.18 212.634C673.849 212.911 674.567 213.048 675.29 213.036C676.187 213.066 677.065 212.781 677.774 212.231C678.622 211.482 679.283 210.545 679.705 209.495L680.625 207.425L671.128 186.201H674.118L682.12 204.275L690.122 186.201L692.951 186.27Z" fill="#222222"/>
<path opacity="0.9" d="M714.127 188.431C714.952 189.341 715.581 190.411 715.977 191.573C716.372 192.736 716.525 193.968 716.427 195.192V207.54H713.552V195.491C713.682 193.653 713.087 191.837 711.897 190.432C711.292 189.839 710.571 189.378 709.78 189.077C708.988 188.776 708.143 188.643 707.298 188.684C706.297 188.632 705.297 188.788 704.359 189.14C703.422 189.492 702.567 190.033 701.848 190.731C701.156 191.489 700.622 192.378 700.279 193.346C699.935 194.313 699.788 195.339 699.847 196.364V207.54H696.973V186.27H699.732V190.179C700.512 188.885 701.645 187.84 702.997 187.166C704.498 186.43 706.155 186.067 707.826 186.109C708.988 186.044 710.151 186.214 711.246 186.609C712.34 187.004 713.344 187.616 714.196 188.408L714.127 188.431Z" fill="#222222"/>
<path opacity="0.9" d="M738.2 188.178C738.999 188.988 739.616 189.958 740.013 191.025C740.409 192.091 740.575 193.229 740.499 194.364V207.54H737.74V204.229C737.053 205.366 736.034 206.265 734.82 206.804C733.426 207.461 731.899 207.784 730.359 207.747C728.333 207.85 726.334 207.249 724.702 206.046C724.022 205.516 723.477 204.834 723.11 204.056C722.742 203.277 722.563 202.422 722.586 201.561C722.554 200.73 722.716 199.902 723.059 199.143C723.402 198.385 723.917 197.717 724.564 197.192C726.386 195.934 728.589 195.349 730.795 195.537H737.556V194.226C737.609 193.459 737.499 192.69 737.233 191.969C736.968 191.247 736.553 190.59 736.015 190.041C734.754 189.017 733.152 188.508 731.531 188.615C730.206 188.603 728.89 188.829 727.645 189.282C726.472 189.685 725.387 190.31 724.449 191.122L723.161 188.983C724.305 188.025 725.625 187.298 727.047 186.845C728.586 186.353 730.192 186.104 731.807 186.109C734.125 185.949 736.415 186.69 738.2 188.178ZM734.981 204.275C736.155 203.498 737.056 202.372 737.556 201.056V197.583H730.887C727.254 197.583 725.438 198.848 725.438 201.377C725.415 201.945 725.53 202.51 725.775 203.023C726.019 203.536 726.385 203.981 726.84 204.321C728.009 205.093 729.397 205.464 730.795 205.379C732.269 205.429 733.724 205.045 734.981 204.275Z" fill="#222222"/>
<path opacity="0.9" d="M781.046 188.408C781.864 189.328 782.488 190.402 782.883 191.567C783.278 192.732 783.435 193.965 783.346 195.192V207.541H780.471V195.491C780.601 193.665 780.034 191.857 778.884 190.432C778.293 189.821 777.574 189.348 776.78 189.046C775.985 188.744 775.133 188.62 774.285 188.684C773.321 188.641 772.357 188.801 771.458 189.153C770.559 189.506 769.744 190.043 769.065 190.731C767.725 192.291 767.041 194.311 767.157 196.365V207.541H764.282V195.491C764.412 193.665 763.845 191.857 762.696 190.432C762.101 189.826 761.381 189.356 760.588 189.055C759.794 188.753 758.944 188.627 758.097 188.684C757.136 188.644 756.177 188.806 755.282 189.158C754.387 189.511 753.575 190.046 752.9 190.731C751.542 192.283 750.849 194.306 750.968 196.365V207.541H748.094V186.27H750.922V190.156C751.652 188.869 752.749 187.828 754.073 187.167C755.497 186.445 757.075 186.082 758.672 186.109C760.277 186.077 761.862 186.465 763.271 187.236C764.588 188.001 765.615 189.182 766.191 190.593C766.971 189.189 768.146 188.045 769.571 187.305C771.121 186.485 772.854 186.073 774.607 186.109C775.755 186.043 776.905 186.213 777.984 186.609C779.064 187.004 780.051 187.617 780.885 188.408H781.046Z" fill="#222222"/>
<path opacity="0.9" d="M791.091 181.004C790.895 180.818 790.741 180.592 790.638 180.343C790.535 180.093 790.486 179.825 790.493 179.555C790.486 179.289 790.536 179.024 790.639 178.778C790.742 178.532 790.896 178.311 791.091 178.129C791.507 177.773 792.037 177.577 792.585 177.577C793.134 177.577 793.664 177.773 794.08 178.129C794.276 178.307 794.433 178.523 794.54 178.765C794.647 179.006 794.702 179.268 794.701 179.532C794.709 179.811 794.658 180.088 794.551 180.346C794.443 180.604 794.283 180.836 794.08 181.027C793.683 181.423 793.146 181.645 792.585 181.645C792.025 181.645 791.487 181.423 791.091 181.027V181.004ZM791.091 186.27H793.965V207.54H791.091V186.27Z" fill="#222222"/>
<path opacity="0.9" d="M805.193 206.367C803.555 205.469 802.201 204.131 801.283 202.504C800.332 200.789 799.848 198.854 799.881 196.893C799.845 194.947 800.329 193.026 801.283 191.328C802.196 189.703 803.552 188.371 805.193 187.488C806.922 186.554 808.861 186.079 810.826 186.108C812.527 186.075 814.211 186.437 815.747 187.166C817.169 187.865 818.358 188.959 819.174 190.317L817.012 191.765C816.348 190.771 815.426 189.976 814.345 189.466C813.248 188.937 812.044 188.67 810.826 188.684C809.38 188.663 807.954 189.02 806.687 189.719C805.47 190.398 804.473 191.412 803.813 192.639C803.132 193.983 802.777 195.468 802.777 196.974C802.777 198.48 803.132 199.965 803.813 201.308C804.473 202.536 805.47 203.549 806.687 204.229C807.953 204.93 809.38 205.287 810.826 205.264C812.044 205.28 813.249 205.013 814.345 204.482C815.432 203.981 816.357 203.184 817.012 202.182L819.174 203.654C818.349 205.007 817.151 206.092 815.724 206.781C814.197 207.516 812.521 207.886 810.826 207.862C808.861 207.891 806.922 207.416 805.193 206.482V206.367Z" fill="#222222"/>
<path opacity="0.9" d="M825.515 206.988C824.166 206.617 822.906 205.975 821.812 205.103L823.1 202.803C824.12 203.554 825.253 204.137 826.458 204.528C827.817 204.969 829.237 205.194 830.666 205.195C832.157 205.294 833.646 204.976 834.966 204.275C835.409 204.011 835.774 203.632 836.02 203.179C836.267 202.726 836.387 202.215 836.369 201.699C836.388 201.355 836.33 201.011 836.198 200.693C836.067 200.375 835.866 200.09 835.61 199.86C835.034 199.392 834.369 199.048 833.655 198.848C832.632 198.573 831.596 198.35 830.551 198.181C829.144 197.941 827.753 197.611 826.389 197.192C825.356 196.864 824.428 196.269 823.698 195.468C822.895 194.549 822.49 193.35 822.571 192.133C822.568 191.272 822.776 190.424 823.177 189.662C823.578 188.901 824.16 188.249 824.871 187.764C826.686 186.525 828.863 185.926 831.057 186.062C832.447 186.063 833.831 186.249 835.173 186.614C836.38 186.891 837.532 187.374 838.576 188.04L837.334 190.34C835.478 189.103 833.286 188.469 831.057 188.523C829.611 188.424 828.17 188.76 826.917 189.489C826.482 189.756 826.124 190.132 825.878 190.579C825.632 191.027 825.507 191.531 825.515 192.041C825.503 192.403 825.566 192.764 825.701 193.1C825.835 193.437 826.038 193.742 826.297 193.996C826.867 194.495 827.543 194.856 828.274 195.054C829.056 195.284 830.137 195.513 831.494 195.766C832.875 196.013 834.241 196.335 835.587 196.732C836.591 197.043 837.496 197.614 838.208 198.388C838.98 199.286 839.375 200.448 839.312 201.63C839.335 202.501 839.136 203.363 838.734 204.136C838.332 204.908 837.739 205.565 837.012 206.045C835.081 207.252 832.824 207.83 830.551 207.701C828.873 207.707 827.205 207.451 825.607 206.942L825.515 206.988Z" fill="#222222"/>
<path d="M233.066 87.5507C234.815 86.5574 236.76 85.9585 238.765 85.7961C240.77 85.6337 242.786 85.9117 244.672 86.6105C246.559 87.3094 248.269 88.4122 249.684 89.8418C251.1 91.2713 252.185 92.993 252.865 94.8862C260.206 117.255 259.7 141.458 251.43 163.501C243.161 185.543 227.622 204.107 207.379 216.127C187.137 228.147 163.4 232.906 140.089 229.617C116.777 226.328 95.2838 215.188 79.157 198.036C63.0302 180.885 53.2342 158.747 51.3859 135.277C49.5377 111.807 55.7477 88.4082 68.991 68.9436C82.2342 49.4791 101.719 35.1122 124.228 28.2148C146.738 21.3174 170.926 22.3017 192.801 31.0053C194.68 31.7838 196.364 32.968 197.731 34.4732C199.099 35.9785 200.117 37.7674 200.713 39.7122C201.308 41.6569 201.466 43.7092 201.176 45.7222C200.886 47.7352 200.154 49.6591 199.033 51.3562C194.687 58.7606 185.236 61.0602 177.049 58.4157C161.741 53.4314 145.208 53.6841 130.059 59.1339C114.91 64.5838 102.006 74.9208 93.3808 88.5152C84.7558 102.11 80.9008 118.188 82.4235 134.215C83.9463 150.243 90.7603 165.308 101.791 177.034C112.822 188.761 127.442 196.483 143.346 198.983C159.251 201.482 175.535 198.617 189.631 190.839C203.727 183.061 214.833 170.812 221.199 156.025C227.564 141.237 228.827 124.751 224.787 109.166C222.511 100.75 225.408 91.4139 233.066 87.5507Z" fill="url(#paint0_linear_882_557)"/>
<path d="M156.058 133.197C154.683 133.2 153.321 132.931 152.051 132.406C150.78 131.881 149.625 131.111 148.653 130.138L117.886 99.3707C116.846 98.3308 116.262 96.9205 116.262 95.45C116.262 93.9794 116.846 92.5691 117.886 91.5293C118.926 90.4894 120.336 89.9053 121.806 89.9053C123.277 89.9053 124.687 90.4894 125.727 91.5293L156.058 121.86L218.375 59.5428C218.89 59.028 219.501 58.6195 220.174 58.3409C220.847 58.0622 221.568 57.9188 222.296 57.9188C223.024 57.9188 223.745 58.0622 224.418 58.3409C225.09 58.6195 225.702 59.028 226.216 59.5428C226.731 60.0577 227.14 60.6689 227.418 61.3417C227.697 62.0144 227.84 62.7354 227.84 63.4635C227.84 64.1917 227.697 64.9127 227.418 65.5854C227.14 66.2581 226.731 66.8694 226.216 67.3842L163.485 130.138C162.51 131.112 161.351 131.884 160.077 132.409C158.802 132.934 157.436 133.201 156.058 133.197Z" fill="#014AB1"/>
<path d="M154.495 151.892C168.109 151.892 179.146 140.855 179.146 127.241C179.146 113.627 168.109 102.59 154.495 102.59C140.88 102.59 129.844 113.627 129.844 127.241C129.844 140.855 140.88 151.892 154.495 151.892Z" fill="#0F6EFF"/>
<mask id="mask0_882_557" style="mask-type:luminance" maskUnits="userSpaceOnUse" x="51" y="23" width="208" height="208">
<path d="M233.066 87.551C234.815 86.5576 236.76 85.9588 238.765 85.7964C240.77 85.634 242.786 85.9119 244.672 86.6108C246.559 87.3096 248.269 88.4125 249.684 89.842C251.1 91.2716 252.185 92.9932 252.865 94.8864C260.206 117.255 259.7 141.459 251.43 163.501C243.161 185.543 227.622 204.107 207.379 216.127C187.137 228.148 163.4 232.906 140.089 229.617C116.777 226.328 95.2838 215.188 79.157 198.037C63.0302 180.885 53.2342 158.747 51.3859 135.277C49.5377 111.807 55.7477 88.4084 68.991 68.9439C82.2342 49.4793 101.719 35.1125 124.228 28.215C146.738 21.3176 170.926 22.3019 192.801 31.0056C194.68 31.784 196.364 32.9683 197.731 34.4735C199.099 35.9787 200.117 37.7677 200.713 39.7124C201.308 41.6571 201.466 43.7095 201.176 45.7225C200.886 47.7355 200.154 49.6593 199.033 51.3564C194.687 58.7609 185.236 61.0604 177.049 58.416C161.741 53.4316 145.208 53.6843 130.059 59.1342C114.91 64.584 102.006 74.9211 93.3808 88.5154C84.7558 102.11 80.9008 118.188 82.4235 134.216C83.9463 150.243 90.7603 165.308 101.791 177.035C112.822 188.762 127.442 196.483 143.346 198.983C159.251 201.482 175.535 198.617 189.631 190.839C203.727 183.061 214.833 170.813 221.199 156.025C227.564 141.237 228.827 124.751 224.787 109.167C222.511 100.75 225.408 91.4142 233.066 87.551Z" fill="white"/>
</mask>
<g mask="url(#mask0_882_557)">
<path d="M105.468 180.681C98.1283 188.396 92.5708 197.627 89.1875 207.724" stroke="white" stroke-width="6" stroke-miterlimit="10" stroke-linecap="square"/>
<path d="M225.384 202.987C221.737 194.156 216.384 186.131 209.632 179.371C208.828 178.566 208 177.807 207.172 177.071" stroke="white" stroke-width="6" stroke-miterlimit="10" stroke-linecap="square"/>
</g>
<path fill-rule="evenodd" clip-rule="evenodd" d="M106.727 179.371C93.1128 192.994 85.4553 211.46 85.4336 230.72H230.925C230.918 216.336 226.647 202.278 218.654 190.32C210.66 178.363 199.301 169.043 186.013 163.538C172.725 158.033 158.103 156.591 143.995 159.392C129.888 162.194 116.927 169.115 106.75 179.279L106.727 179.371Z" fill="url(#paint1_linear_882_557)"/>
<defs>
<linearGradient id="paint0_linear_882_557" x1="154.491" y1="229.064" x2="154.491" y2="22.773" gradientUnits="userSpaceOnUse">
<stop stop-color="#00ACE6"/>
<stop offset="1" stop-color="#2656FE"/>
</linearGradient>
<linearGradient id="paint1_linear_882_557" x1="158.168" y1="303.569" x2="158.168" y2="158.078" gradientUnits="userSpaceOnUse">
<stop stop-color="#2751FF"/>
<stop offset="1" stop-color="#1E92FD"/>
</linearGradient>
</defs>
</svg>
