<svg width="28" height="28" viewBox="0 0 28 28" fill="none" xmlns="http://www.w3.org/2000/svg">
<path d="M13.699 27.3974C10.9897 27.3975 8.34109 26.5942 6.08828 25.089C3.83548 23.5838 2.07962 21.4443 1.04277 18.9412C0.00592225 16.438 -0.265355 13.6836 0.263247 11.0263C0.791849 8.36898 2.09659 5.92809 4.01246 4.01231C6.5815 1.44327 10.0659 -2.70692e-08 13.699 0C17.3322 2.70692e-08 20.8166 1.44327 23.3856 4.01231C25.9547 6.58135 27.3979 10.0657 27.3979 13.6989C27.3979 17.3321 25.9547 20.8164 23.3856 23.3855C22.1164 24.6613 20.6067 25.6728 18.9441 26.3614C17.2814 27.0501 15.4987 27.4022 13.699 27.3974ZM6.84977 18.0028C8.05797 18.7761 9.45197 19.2101 10.8856 19.2593C12.3192 19.3085 13.7397 18.971 14.9981 18.2823C16.2564 17.5936 17.3063 16.579 18.0376 15.3449C18.7689 14.1108 19.1546 12.7027 19.1545 11.2683C19.1545 11.1433 19.1545 11.02 19.1459 10.9044C19.6965 10.5075 20.1715 10.0151 20.5483 9.45063C20.0353 9.67736 19.4914 9.82654 18.9345 9.89326C19.5212 9.54173 19.9604 8.9893 20.1707 8.33848C19.6191 8.66691 19.0154 8.89856 18.3857 9.02341C17.9618 8.57325 17.4016 8.27523 16.7914 8.17543C16.1812 8.07563 15.5552 8.1796 15.0101 8.47127C14.4649 8.76295 14.031 9.22607 13.7755 9.78906C13.5199 10.352 13.457 10.9835 13.5963 11.5859C12.479 11.5282 11.3862 11.2368 10.3885 10.7307C9.39071 10.2246 8.51012 9.51497 7.80353 8.64755C7.44343 9.2662 7.33293 9.99893 7.49458 10.6963C7.65622 11.3936 8.07783 12.003 8.67339 12.4001C8.22678 12.3859 7.79003 12.2652 7.39943 12.0482V12.0842C7.40056 12.7327 7.62546 13.361 8.03616 13.863C8.44686 14.3649 9.0182 14.7098 9.65369 14.8393C9.41221 14.9043 9.1632 14.9371 8.91312 14.9369C8.73559 14.9368 8.55846 14.9201 8.38401 14.8872C8.56333 15.4458 8.91293 15.9343 9.38382 16.2842C9.85471 16.6341 10.4233 16.8279 11.0098 16.8384C10.015 17.6205 8.78475 18.043 7.51929 18.037C7.29564 18.0388 7.07208 18.0274 6.84977 18.0028Z" fill="#03A9F4"/>
</svg>
